{"title":"2012 Supernova [2009] DVDRIP XViD-BestDiVX","uid":5133704,"size":741795081,"categoryP":"video","categoryS":"movies","magnet":"?xt=urn:btih:68b32517bb41e76baa0821ba17d3f67762f0bd7d&amp;dn=2012+Supernova+%5B2009%5D+DVDRIP+XViD-BestDiVX&amp;tr=udp%3A%2F%2Ftracker.openbittorrent.com%3A80&amp;tr=udp%3A%2F%2Fopen.demonii.com%3A1337&amp;tr=udp%3A%2F%2Ftracker.coppersurfer.tk%3A6969&amp;tr=udp%3A%2F%2Fexodus.desync.com%3A6969","seeders":0,"leechers":1,"uploader":"headdock","files":6,"time":1256326750,"description":"General\nComplete name                    : 2012 Supernova [2009] DVDRIP XViD-BestDiVX\nFormat                           : AVI\nFormat/Info                      : Audio Video Interleave\nFile size                        : 701 MiB\nDuration                         : 1h 27mn\nOverall bit rate                 : 1 125 Kbps\nWriting application              : VirtualDubMod 1.5.10.2 (build 2540/release)\nWriting library                  : VirtualDubMod build 2540/release\n\nVideo\nFormat                           : MPEG-4 Visual\nFormat profile                   : Streaming Video@L1\nFormat settings, BVOP            : Yes\nFormat settings, QPel            : No\nFormat settings, GMC             : No warppoints\nFormat settings, Matrix          : Default\nCodec ID                         : XVID\nCodec ID/Hint                    : XviD\nDuration                         : 1h 27mn\nBit rate                         : 990 Kbps\nWidth                            : 624 pixels\nHeight                           : 352 pixels\nDisplay aspect ratio             : 16/9\nFrame rate                       : 23.976 fps\nResolution                       : 24 bits\nColorimetry                      : 4:2:0\nScan type                        : Progressive\nBits/(Pixel*Frame)               : 0.188\nStream size                      : 617 MiB (88%)\nWriting library                  : XviD 1.2.1 (UTC 2008-12-04)\n\nAudio\nFormat                           : MPEG Audio\nFormat version                   : Version 1\nFormat profile                   : Layer 3\nCodec ID                         : 55\nCodec ID/Hint                    : MP3\nDuration                         : 1h 27mn\nBit rate mode                    : Variable\nBit rate                         : 123 Kbps\nNominal bit rate                 : 125 Kbps\nChannel(s)                       : 2 channels\nSampling rate                    : 48.0 KHz\nResolution                       : 16 bits\nStream size                      : 76.3 MiB (11%)\nAlignment                        : Aligned on interleaves\nInterleave, duration             : 24 ms (0.58 video frame)\nInterleave, preload duration     : 150 ms\nWriting library                  : LAME3.93a\nEncoding settings                : ABR\n\n\n\n\n\nBrian Krause       ... Kelvin\n\nHeather McComb     ... Laura\n\nNajarra Townsend   ... Tina\n\nLondale Theus      ... Henreaux\n\nStephen Blackehart ... Agent Greene\n\n\n\nPlot:\n\n\nA scientist tries to save the Earth from the deadly blast of a star gone supernova.","torrent":{"xt":"urn:btih:68b32517bb41e76baa0821ba17d3f67762f0bd7d","amp;dn":"2012+Supernova+%5B2009%5D+DVDRIP+XViD-BestDiVX","amp;tr":["udp%3A%2F%2Ftracker.openbittorrent.com%3A80","udp%3A%2F%2Fopen.demonii.com%3A1337","udp%3A%2F%2Ftracker.coppersurfer.tk%3A6969","udp%3A%2F%2Fexodus.desync.com%3A6969"],"infoHash":"68b32517bb41e76baa0821ba17d3f67762f0bd7d","infoHashBuffer":{"type":"Buffer","data":[104,179,37,23,187,65,231,107,170,8,33,186,23,211,246,119,98,240,189,125]},"announce":[],"urlList":[]}}